<svg stroke="#ffffff" version="1.1" class="icon" fill="#ffffff" viewBox="155.219536 161.19436 692.13116 708.62352" xmlns="http://www.w3.org/2000/svg" style="max-height: 500px" width="692.13116" height="708.62352"><g stroke-width="0" id="deeditor_bgCarrier">
    <rect fill="#196619" rx="0" height="1030" width="1030" y="-3" x="-3" id="dee_c_e"/>
  </g>

<g stroke-width="0" id="SVGRepo_bgCarrier"/>

<g stroke-linejoin="round" stroke-linecap="round" id="SVGRepo_tracerCarrier"/>

<g id="SVGRepo_iconCarrier">

<path fill="" d="M176.662 817.173c-8.19 8.471-7.96 21.977 0.51 30.165 8.472 8.19 21.978 7.96 30.166-0.51l618.667-640c8.189-8.472 7.96-21.978-0.511-30.166-8.471-8.19-21.977-7.96-30.166 0.51l-618.666 640z"/>

<path fill="" d="M795.328 846.827c8.19 8.471 21.695 8.7 30.166 0.511 8.471-8.188 8.7-21.694 0.511-30.165l-618.667-640c-8.188-8.471-21.694-8.7-30.165-0.511-8.471 8.188-8.7 21.694-0.511 30.165l618.666 640z"/>

</g>

</svg>